<mxfile host="65bd71144e">
    <diagram id="JuzghIpMnibUoGMsDdH1" name="PÃ¡gina-1">
        <mxGraphModel dx="267" dy="179" grid="1" gridSize="10" guides="1" tooltips="1" connect="1" arrows="1" fold="1" page="1" pageScale="1" pageWidth="827" pageHeight="1169" math="0" shadow="0">
            <root>
                <mxCell id="0"/>
                <mxCell id="1" parent="0"/>
                <mxCell id="2" value="Text" style="text;html=1;align=center;verticalAlign=middle;resizable=0;points=[];autosize=1;strokeColor=none;fillColor=none;" vertex="1" parent="1">
                    <mxGeometry x="25" y="55" width="50" height="30" as="geometry"/>
                </mxCell>
                <mxCell id="11" style="edgeStyle=none;html=1;exitX=1;exitY=0.5;exitDx=0;exitDy=0;fontSize=13;endArrow=diamond;endFill=0;strokeWidth=1;endSize=15;" edge="1" parent="1" source="4">
                    <mxGeometry relative="1" as="geometry">
                        <mxPoint x="620" y="770" as="targetPoint"/>
                    </mxGeometry>
                </mxCell>
                <mxCell id="4" value="Vertical Container" style="swimlane;whiteSpace=wrap;html=1;startSize=60;" vertex="1" parent="1">
                    <mxGeometry x="30" y="560" width="310" height="420" as="geometry"/>
                </mxCell>
                <mxCell id="5" value="&lt;font style=&quot;font-size: 14px;&quot;&gt;- nome :&amp;nbsp; string&lt;br&gt;- telefone: string&lt;br&gt;- celular: string&lt;br&gt;- imagem: string&lt;br&gt;- data; string&lt;br&gt;- email; string&lt;br&gt;- cep; string&lt;br&gt;- city; string&lt;br&gt;- insta; string&lt;br&gt;- github: string&lt;/font&gt;" style="text;html=1;strokeColor=none;fillColor=none;align=left;verticalAlign=middle;whiteSpace=wrap;rounded=0;" vertex="1" parent="4">
                    <mxGeometry y="60" width="190" height="220" as="geometry"/>
                </mxCell>
                <mxCell id="7" value="" style="line;strokeWidth=4;html=1;perimeter=backbonePerimeter;points=[];outlineConnect=0;fontSize=13;spacing=2;spacingTop=5;" vertex="1" parent="4">
                    <mxGeometry y="280" width="310" height="10" as="geometry"/>
                </mxCell>
                <mxCell id="9" value="+getZodiacSign()&lt;br&gt;+getPersonAge()&lt;br&gt;+generateId()&lt;br&gt;+getContactById()" style="text;html=1;align=left;verticalAlign=middle;resizable=0;points=[];autosize=1;strokeColor=none;fillColor=none;fontSize=13;" vertex="1" parent="4">
                    <mxGeometry x="10" y="310" width="130" height="80" as="geometry"/>
                </mxCell>
                <mxCell id="12" value="Vertical Container" style="swimlane;whiteSpace=wrap;html=1;startSize=60;" vertex="1" parent="1">
                    <mxGeometry x="620" y="570" width="310" height="420" as="geometry"/>
                </mxCell>
                <mxCell id="13" value="&lt;span style=&quot;font-size: 14px;&quot;&gt;-contatos = [ ];&lt;/span&gt;" style="text;html=1;strokeColor=none;fillColor=none;align=left;verticalAlign=middle;whiteSpace=wrap;rounded=0;" vertex="1" parent="12">
                    <mxGeometry y="60" width="190" height="220" as="geometry"/>
                </mxCell>
                <mxCell id="14" value="" style="line;strokeWidth=4;html=1;perimeter=backbonePerimeter;points=[];outlineConnect=0;fontSize=13;spacing=2;spacingTop=5;" vertex="1" parent="12">
                    <mxGeometry y="280" width="310" height="10" as="geometry"/>
                </mxCell>
                <mxCell id="15" value="+addContato(); object" style="text;html=1;align=left;verticalAlign=middle;resizable=0;points=[];autosize=1;strokeColor=none;fillColor=none;fontSize=13;" vertex="1" parent="12">
                    <mxGeometry x="10" y="335" width="150" height="30" as="geometry"/>
                </mxCell>
                <mxCell id="16" value="possui" style="text;html=1;align=center;verticalAlign=middle;resizable=0;points=[];autosize=1;strokeColor=none;fillColor=none;fontSize=13;" vertex="1" parent="1">
                    <mxGeometry x="440" y="665" width="60" height="30" as="geometry"/>
                </mxCell>
                <mxCell id="17" value="0...1" style="text;html=1;align=center;verticalAlign=middle;resizable=0;points=[];autosize=1;strokeColor=none;fillColor=none;fontSize=13;" vertex="1" parent="1">
                    <mxGeometry x="335" y="735" width="50" height="30" as="geometry"/>
                </mxCell>
                <mxCell id="18" value="0...*" style="text;html=1;align=center;verticalAlign=middle;resizable=0;points=[];autosize=1;strokeColor=none;fillColor=none;fontSize=13;" vertex="1" parent="1">
                    <mxGeometry x="560" y="735" width="50" height="30" as="geometry"/>
                </mxCell>
            </root>
        </mxGraphModel>
    </diagram>
</mxfile>